<svg width="59" height="27" viewBox="0 0 59 27" fill="none" xmlns="http://www.w3.org/2000/svg">
<g clip-path="url(#clip0_2_16)">
<path d="M44.7297 21.14L43 6.4H39.8108C39.4324 4.145 37.4324 2.44 35 2.44C32.5675 2.44 30.5675 4.145 30.1892 6.4H27L25.2702 21.14C25.1621 21.965 25.4865 22.46 25.7567 22.79C26.027 23.065 26.5135 23.45 27.4324 23.45H42.5675C43.2702 23.45 43.8648 23.23 44.2432 22.735C44.6216 22.35 44.7838 21.745 44.7297 21.14ZM35 4.64C36.1892 4.64 37.2162 5.41 37.5405 6.4H32.4054C32.7838 5.355 33.8108 4.64 35 4.64ZM27.4324 21.25L28.9459 8.6H30.1351V10.25C30.1351 10.855 30.6216 11.35 31.2162 11.35C31.8108 11.35 32.2973 10.855 32.2973 10.25V8.6H37.7027V10.25C37.7027 10.855 38.1892 11.35 38.7838 11.35C39.3783 11.35 39.8648 10.855 39.8648 10.25V8.6H41.054L42.5675 21.25H27.4324Z" fill="black"/>
</g>
<path d="M56.5732 13.4517C56.5732 15.0386 56.3022 16.2178 55.7603 16.9893C55.2183 17.7607 54.3711 18.1465 53.2188 18.1465C52.0811 18.1465 51.2388 17.7705 50.6919 17.0186C50.145 16.2617 49.8618 15.1338 49.8423 13.6348V11.8257C49.8423 10.2583 50.1133 9.09375 50.6553 8.33203C51.1973 7.57031 52.0469 7.18945 53.2041 7.18945C54.3516 7.18945 55.1963 7.55811 55.7383 8.29541C56.2803 9.02783 56.5586 10.1606 56.5732 11.6938V13.4517ZM55.2183 11.5986C55.2183 10.4512 55.0571 9.61621 54.7349 9.09375C54.4126 8.56641 53.9023 8.30273 53.2041 8.30273C52.5107 8.30273 52.0054 8.56396 51.688 9.08643C51.3706 9.60889 51.207 10.4121 51.1973 11.4961V13.6641C51.1973 14.8164 51.3633 15.6685 51.6953 16.2202C52.0322 16.7671 52.54 17.0405 53.2188 17.0405C53.8877 17.0405 54.3833 16.7817 54.7056 16.2642C55.0327 15.7466 55.2036 14.9312 55.2183 13.8179V11.5986Z" fill="#B4604D"/>
<defs>
<clipPath id="clip0_2_16">
<rect width="20" height="22" fill="white" transform="translate(25 2)"/>
</clipPath>
</defs>
</svg>
